<svg width="640" height="269" viewBox="0 0 640 269" fill="none" xmlns="http://www.w3.org/2000/svg">
<path d="M349.004 168.837C283.367 182.563 234.559 214.734 239.987 240.688C245.415 266.642 303.026 276.555 368.661 262.831C434.298 249.105 483.106 216.934 477.678 190.98C472.249 165.021 414.641 155.11 349.004 168.837ZM368.012 260.114C308.033 272.657 255.175 262.562 249.947 237.564C244.72 212.57 288.998 181.564 348.977 169.021C408.954 156.48 461.921 167.144 467.146 192.141C472.374 217.14 427.991 247.571 368.012 260.114Z" fill="#7338B1"/>
<path d="M0 217.044C10.56 214.86 14.9434 212.676 14.9434 200.169V112.816C14.9434 100.309 10.56 98.125 0 95.9412V91.9706H62.7622V95.9412C49.4128 97.7279 43.8339 100.309 43.8339 112.816V213.074H59.375C83.4837 213.074 94.8406 204.14 101.216 175.353H105.6V221.015H0V217.044Z" fill="black"/>
<path d="M188.923 89.9853C226.182 89.9853 253.279 112.022 253.279 154.706C253.279 197.588 222.795 223 183.942 223C146.683 223 119.586 200.963 119.586 158.279C119.586 115.397 150.07 89.9853 188.923 89.9853ZM183.942 98.7206C162.224 98.7206 151.664 115.397 151.664 151.331C151.664 180.515 163.221 214.265 188.923 214.265C210.641 214.265 221.201 197.588 221.201 161.654C221.201 132.471 209.645 98.7206 183.942 98.7206Z" fill="black"/>
<path d="M331.878 99.1176C311.555 99.1176 297.409 117.184 297.409 145.375C297.409 182.301 320.123 198.184 342.638 198.184C361.367 198.184 377.904 187.662 382.287 162.25H387.269C385.276 194.412 367.543 223 333.472 223C299.003 223 273.3 197.985 273.3 159.074C273.3 118.176 303.187 89.9853 338.454 89.9853C354.592 89.9853 369.336 94.75 381.49 99.7132V139.618H377.107C363.957 110.037 348.017 99.1176 331.878 99.1176Z" fill="black"/>
<path d="M496.324 221.015H429.577V217.044C442.926 215.257 448.505 212.676 448.505 200.169V99.9118H447.509C423.4 99.9118 412.043 108.846 405.668 137.632H401.284V91.9706H524.617V137.632H520.233C513.858 108.846 502.501 99.9118 478.392 99.9118H477.396V200.169C477.396 212.676 482.975 215.257 496.324 217.044V221.015Z" fill="black"/>
<path d="M549.144 217.044V221.015H508.697V217.044C520.453 212.676 525.633 205.132 532.408 188.654L573.452 88H578.035L619.079 187.86C627.248 207.912 632.229 213.669 640 217.044V221.015H585.606V217.044C593.775 215.853 597.76 208.309 592.181 194.412L590.786 190.838H540.577L539.381 194.015C533.802 208.11 538.186 215.257 549.144 217.044ZM547.351 173.963H584.012L565.682 127.507L547.351 173.963Z" fill="black"/>
<g clip-path="url(#clip0_173_77)">
<path d="M615.001 71.0044C548.13 73.285 546.286 75.1374 543.997 142.009C541.716 75.1374 539.864 73.2937 472.992 71.0044C539.864 68.7238 541.707 66.8713 543.997 0C546.277 66.8713 548.13 68.715 615.001 71.0044Z" fill="#7338B1"/>
</g>
<defs>
<clipPath id="clip0_173_77">
<rect width="142" height="142" fill="white" transform="translate(473)"/>
</clipPath>
</defs>
</svg>
